<svg width="922" height="328" viewBox="0 0 922 328" fill="none" xmlns="http://www.w3.org/2000/svg" xmlns:xlink="http://www.w3.org/1999/xlink">
<use xlink:href="#stroke0_251_108" transform="translate(38.7045 65.7747) scale(0.169218) rotate(70.8208)"/>
<use xlink:href="#stroke0_251_108" transform="translate(51.6818 89.1593) scale(0.128862) rotate(94.305)"/>
<use xlink:href="#stroke0_251_108" transform="translate(33.8923 98.2407) scale(0.0868712) rotate(-111.803)"/>
<use xlink:href="#stroke0_251_108" transform="translate(49.4027 108.418) scale(0.0847948) rotate(-149.998)"/>
<use xlink:href="#stroke0_251_108" transform="translate(58.8386 49.5777) scale(0.132345) rotate(53.9615)"/>
<use xlink:href="#stroke0_251_108" transform="translate(75.8616 62.0989) scale(0.138993) rotate(74.4849)"/>
<use xlink:href="#stroke0_251_108" transform="translate(79.9834 112.631) scale(0.100499) rotate(-172.559)"/>
<use xlink:href="#stroke0_251_108" transform="translate(90.1949 97.6471) scale(0.100059) rotate(175.149)"/>
<use xlink:href="#stroke0_251_108" transform="translate(73.5299 78.162) scale(0.0789212) rotate(10.0196)"/>
<use xlink:href="#stroke0_251_108" transform="translate(54.1168 104.195) scale(0.205371) rotate(-20.5242)"/>
<use xlink:href="#stroke0_251_108" transform="matrix(0.16776 -0.148584 0.148584 0.16776 61.5447 100.804)"/>
<use xlink:href="#stroke0_251_108" transform="translate(121.431 103.795) scale(0.0902569) rotate(72.8215)"/>
<use xlink:href="#stroke0_251_108" transform="translate(99.7709 103.261) scale(0.122038) rotate(-18.602)"/>
<use xlink:href="#stroke0_251_108" transform="translate(139.099 115.983) scale(0.097714) rotate(-174.465)"/>
<use xlink:href="#stroke0_251_108" transform="translate(160.696 44.4571) scale(0.20909) rotate(75.6685)"/>
<use xlink:href="#stroke0_251_108" transform="translate(125.389 91.2916) scale(0.188602) rotate(0.135937)"/>
<use xlink:href="#stroke0_251_108" transform="translate(181.932 114.831) scale(0.118586) rotate(130.773)"/>
<use xlink:href="#stroke0_251_108" transform="translate(156.934 68.9996) scale(0.136467) rotate(14.2141)"/>
<use xlink:href="#stroke0_251_108" transform="translate(153.684 125.329) scale(0.184542) rotate(-90.5928)"/>
<use xlink:href="#stroke0_251_108" transform="translate(175.601 94.7452) scale(0.135951) rotate(13.1926)"/>
<use xlink:href="#stroke0_251_108" transform="translate(231.987 104.863) scale(0.190834) rotate(162.733)"/>
<use xlink:href="#stroke0_251_108" transform="translate(189.134 146.437) scale(0.141541) rotate(-89.8079)"/>
<use xlink:href="#stroke0_251_108" transform="translate(195.418 92.8883) scale(0.141874) rotate(-66.3108)"/>
<use xlink:href="#stroke0_251_108" transform="translate(248.826 121.021) scale(0.131856) rotate(166.35)"/>
<use xlink:href="#stroke0_251_108" transform="translate(235.833 112.866) scale(0.103802) rotate(48.0824)"/>
<use xlink:href="#stroke0_251_108" transform="translate(215.919 115.067) scale(0.146825) rotate(-32.6695)"/>
<use xlink:href="#stroke0_251_108" transform="translate(269.216 145.478) scale(0.204441) rotate(-158.986)"/>
<use xlink:href="#stroke0_251_108" transform="translate(248.571 117.399) scale(0.135818) rotate(-92.8762)"/>
<use xlink:href="#stroke0_251_108" transform="translate(255.25 166.176) scale(0.231764) rotate(-108.159)"/>
<use xlink:href="#stroke0_251_108" transform="translate(349.589 94.4502) scale(0.287784) rotate(141.244)"/>
<use xlink:href="#stroke0_251_108" transform="translate(329.438 76.0203) scale(0.313673) rotate(59.733)"/>
<use xlink:href="#stroke0_251_108" transform="translate(304.165 131.158) scale(0.116226) rotate(-42.6967)"/>
<use xlink:href="#stroke0_251_108" transform="translate(294.985 131.151) scale(0.222964) rotate(-39.3834)"/>
<use xlink:href="#stroke0_251_108" transform="translate(349.617 67.6642) scale(0.152093) rotate(39.3754)"/>
<use xlink:href="#stroke0_251_108" transform="translate(375.937 95.4223) scale(0.158909) rotate(75.3521)"/>
<use xlink:href="#stroke0_251_108" transform="translate(360.82 38.9312) scale(0.316281) rotate(27.4907)"/>
<use xlink:href="#stroke0_251_108" transform="translate(377.094 108.611) scale(0.138814) rotate(15.7774)"/>
<use xlink:href="#stroke0_251_108" transform="translate(450.632 48.9354) scale(0.332498) rotate(87.3381)"/>
<use xlink:href="#stroke0_251_108" transform="translate(457.166 110.165) scale(0.194504) rotate(156.28)"/>
<use xlink:href="#stroke0_251_108" transform="translate(469.8 177.424) scale(0.278198) rotate(-177.165)"/>
<use xlink:href="#stroke0_251_108" transform="translate(502.119 97.1868) scale(0.318918) rotate(93.7683)"/>
<use xlink:href="#stroke0_251_108" transform="matrix(0.274983 -0.1889 0.1889 0.274983 414.53 126.816)"/>
<use xlink:href="#stroke0_251_108" transform="translate(512.658 75.7601) scale(0.180297) rotate(74.4289)"/>
<use xlink:href="#stroke0_251_108" transform="translate(465.963 105.374) scale(0.255757) rotate(-15.8021)"/>
<use xlink:href="#stroke0_251_108" transform="translate(529.69 100.116) scale(0.260271) rotate(51.0747)"/>
<use xlink:href="#stroke0_251_108" transform="translate(485.551 127.482) scale(0.298143) rotate(-43.4275)"/>
<use xlink:href="#stroke0_251_108" transform="translate(547.396 155.314) scale(0.265879) rotate(-120.939)"/>
<use xlink:href="#stroke0_251_108" transform="translate(645.511 84.7963) scale(0.376496) rotate(106.972)"/>
<use xlink:href="#stroke0_251_108" transform="translate(635.518 78.6365) scale(0.255494) rotate(86.8069)"/>
<use xlink:href="#stroke0_251_108" transform="translate(562.824 174.036) scale(0.390096) rotate(-84.0509)"/>
<use xlink:href="#stroke0_251_108" transform="translate(720.576 137.53) scale(0.395994) rotate(145.43)"/>
<use xlink:href="#stroke0_251_108" transform="translate(691.031 146.955) scale(0.158296) rotate(111.952)"/>
<use xlink:href="#stroke0_251_108" transform="translate(725.293 169.369) scale(0.265992) rotate(148.199)"/>
<use xlink:href="#stroke0_251_108" transform="translate(695.113 122.74) scale(0.192032) rotate(48.7046)"/>
<use xlink:href="#stroke0_251_108" transform="translate(712.754 151.863) scale(0.170766) rotate(-150.105)"/>
<use xlink:href="#stroke0_251_108" transform="translate(782.992 120.562) scale(0.359293) rotate(109.183)"/>
<use xlink:href="#stroke0_251_108" transform="translate(678.541 159.564) scale(0.394882) rotate(-71.7902)"/>
<use xlink:href="#stroke0_251_108" transform="translate(704.202 120.773) scale(0.402017) rotate(-17.3033)"/>
<use xlink:href="#stroke0_251_108" transform="translate(801.557 188.769) scale(0.319531) rotate(-143.231)"/>
<use xlink:href="#stroke0_251_108" transform="matrix(0.206067 -0.32595 0.32595 0.206067 746.394 139.88)"/>
<use xlink:href="#stroke0_251_108" transform="translate(811.248 154.516) scale(0.182259) rotate(-91.1554)"/>
<use xlink:href="#stroke0_251_108" transform="translate(915.149 214.982) scale(0.404052) rotate(167.338)"/>
<use xlink:href="#stroke0_251_108" transform="translate(814.013 214.408) scale(0.410014) rotate(-124.017)"/>
<use xlink:href="#stroke0_251_108" transform="translate(773.348 110.375) scale(0.300095) rotate(2.4768)"/>
<use xlink:href="#stroke0_251_108" transform="translate(746.362 138.189) scale(0.304036) rotate(-10.34)"/>
<use xlink:href="#stroke0_251_108" transform="translate(768.686 72.5101) scale(0.319298) rotate(42.9572)"/>
<use xlink:href="#stroke0_251_108" transform="translate(678.565 166.802) scale(0.374222) rotate(-56.7803)"/>
<use xlink:href="#stroke0_251_108" transform="translate(676.058 244.647) scale(0.425924) rotate(-99.8469)"/>
<use xlink:href="#stroke0_251_108" transform="translate(701.925 188.851) scale(0.183547) rotate(-135.834)"/>
<use xlink:href="#stroke0_251_108" transform="translate(653.37 131.443) scale(0.219445) rotate(-17.8258)"/>
<use xlink:href="#stroke0_251_108" transform="translate(648.29 158.302) scale(0.185372) rotate(-17.3176)"/>
<use xlink:href="#stroke0_251_108" transform="translate(647.056 211.97) scale(0.217137) rotate(-110.187)"/>
<use xlink:href="#stroke0_251_108" transform="translate(619.992 124.323) scale(0.196505) rotate(-10.2313)"/>
<use xlink:href="#stroke0_251_108" transform="translate(688.919 189.64) scale(0.328186) rotate(160.569)"/>
<use xlink:href="#stroke0_251_108" transform="translate(522.591 180.775) scale(0.46321) rotate(-50.0509)"/>
<use xlink:href="#stroke0_251_108" transform="translate(627.895 191.597) scale(0.278842) rotate(167.684)"/>
<use xlink:href="#stroke0_251_108" transform="translate(615.887 227.812) scale(0.481324) rotate(-175.342)"/>
<use xlink:href="#stroke0_251_108" transform="translate(571.144 212.582) scale(0.210252) rotate(171.802)"/>
<use xlink:href="#stroke0_251_108" transform="matrix(-0.2526 -0.243734 0.243734 -0.2526 519.63 240.573)"/>
<use xlink:href="#stroke0_251_108" transform="translate(537.424 221.377) scale(0.192401) rotate(163.189)"/>
<use xlink:href="#stroke0_251_108" transform="translate(540.832 198.442) scale(0.263407) rotate(130.662)"/>
<use xlink:href="#stroke0_251_108" transform="translate(436.131 174.664) scale(0.198862) rotate(-52.7912)"/>
<use xlink:href="#stroke0_251_108" transform="translate(444.981 113.571) scale(0.467446) rotate(36.4476)"/>
<use xlink:href="#stroke0_251_108" transform="translate(397.225 208.988) scale(0.232393) rotate(-88.2519)"/>
<use xlink:href="#stroke0_251_108" transform="translate(391.954 247.83) scale(0.269684) rotate(-108.698)"/>
<use xlink:href="#stroke0_251_108" transform="translate(365.611 200.01) scale(0.187626) rotate(-52.4214)"/>
<use xlink:href="#stroke0_251_108" transform="translate(355.469 123.986) scale(0.346792) rotate(18.5094)"/>
<use xlink:href="#stroke0_251_108" transform="translate(291.479 242.125) scale(0.471551) rotate(-90.9342)"/>
<use xlink:href="#stroke0_251_108" transform="translate(375.795 273.007) scale(0.374428) rotate(-175.506)"/>
<use xlink:href="#stroke0_251_108" transform="translate(286.303 146.543) scale(0.32085) rotate(21.6998)"/>
<use xlink:href="#stroke0_251_108" transform="translate(327.049 190.085) scale(0.193484) rotate(125.228)"/>
<use xlink:href="#stroke0_251_108" transform="translate(310.379 179.031) scale(0.180868) rotate(112.264)"/>
<use xlink:href="#stroke0_251_108" transform="translate(240.668 125.013) scale(0.29611) rotate(20.7433)"/>
<use xlink:href="#stroke0_251_108" transform="translate(274.099 249.32) scale(0.247794) rotate(-172.065)"/>
<use xlink:href="#stroke0_251_108" transform="translate(212.157 186.807) scale(0.240577) rotate(15.4527)"/>
<use xlink:href="#stroke0_251_108" transform="translate(258.718 184.995) scale(0.237557) rotate(123.771)"/>
<use xlink:href="#stroke0_251_108" transform="translate(147.715 111.063) scale(0.497061) rotate(15.4309)"/>
<use xlink:href="#stroke0_251_108" transform="translate(114.928 276.283) scale(0.466856) rotate(-106.075)"/>
<use xlink:href="#stroke0_251_108" transform="matrix(0.1851 0.238225 -0.238225 0.1851 146.726 164.581)"/>
<use xlink:href="#stroke0_251_108" transform="translate(144.878 193.678) scale(0.176968) rotate(86.5027)"/>
<use xlink:href="#stroke0_251_108" transform="translate(106.815 151.383) scale(0.280178) rotate(43.9287)"/>
<use xlink:href="#stroke0_251_108" transform="translate(68.0708 177.133) scale(0.326519) rotate(22.9163)"/>
<use xlink:href="#stroke0_251_108" transform="translate(49.2376 270.986) scale(0.252227) rotate(-111.616)"/>
<use xlink:href="#stroke0_251_108" transform="translate(86.8946 201.693) scale(0.238872) rotate(88.9228)"/>
<use xlink:href="#stroke0_251_108" transform="translate(63.1939 294.075) scale(0.320439) rotate(-151.62)"/>
<use xlink:href="#stroke0_251_108" transform="translate(39.0509 216.115) scale(0.184139) rotate(-2.90128)"/>
<use xlink:href="#stroke0_251_108" transform="translate(166.348 228.169) scale(0.447338) rotate(120.385)"/>
<use xlink:href="#stroke0_251_108" transform="translate(73.1545 264.205) scale(0.226792) rotate(-86.5793)"/>
<use xlink:href="#stroke0_251_108" transform="translate(212.454 229.901) scale(0.444248) rotate(138.81)"/>
<use xlink:href="#stroke0_251_108" transform="translate(125.093 277.373) scale(0.355511) rotate(-110.669)"/>
<use xlink:href="#stroke0_251_108" transform="translate(189.895 207.843) scale(0.173389) rotate(78.4971)"/>
<use xlink:href="#stroke0_251_108" transform="translate(229.091 244.702) scale(0.270284) rotate(166.072)"/>
<use xlink:href="#stroke0_251_108" transform="translate(170.063 227.224) scale(0.161886) rotate(-26.9788)"/>
<use xlink:href="#stroke0_251_108" transform="translate(196.778 219.565) scale(0.184193) rotate(22.5437)"/>
<use xlink:href="#stroke0_251_108" transform="translate(188.991 250.909) scale(0.17584) rotate(-61.6647)"/>
<use xlink:href="#stroke0_251_108" transform="translate(186.339 230.619) scale(0.26326) rotate(-40.7266)"/>
<use xlink:href="#stroke0_251_108" transform="translate(278.813 280.976) scale(0.200476) rotate(171.192)"/>
<use xlink:href="#stroke0_251_108" transform="translate(296.852 261.994) scale(0.190809) rotate(148.062)"/>
<use xlink:href="#stroke0_251_108" transform="translate(336.334 214.91) scale(0.296812) rotate(130.148)"/>
<use xlink:href="#stroke0_251_108" transform="matrix(-0.233952 -0.2776 0.2776 -0.233952 290.31 324.899)"/>
<use xlink:href="#stroke0_251_108" transform="translate(355.14 205.294) scale(0.213272) rotate(104.651)"/>
<use xlink:href="#stroke0_251_108" transform="translate(359.01 267.374) scale(0.251325) rotate(-168.36)"/>
<use xlink:href="#stroke0_251_108" transform="translate(332.375 204.006) scale(0.146247) rotate(10.4431)"/>
<use xlink:href="#stroke0_251_108" transform="translate(347.645 282.392) scale(0.182248) rotate(-122.828)"/>
<use xlink:href="#stroke0_251_108" transform="translate(397.158 194.625) scale(0.200045) rotate(87.7337)"/>
<use xlink:href="#stroke0_251_108" transform="translate(414.102 239.204) scale(0.191328) rotate(110.132)"/>
<use xlink:href="#stroke0_251_108" transform="translate(372.111 278.959) scale(0.212344) rotate(-103.527)"/>
<use xlink:href="#stroke0_251_108" transform="translate(401.791 213.537) scale(0.290508) rotate(35.4312)"/>
<use xlink:href="#stroke0_251_108" transform="matrix(-0.2197 -0.211685 0.211685 -0.2197 426.4 333.059)"/>
<use xlink:href="#stroke0_251_108" transform="translate(463.045 273.74) scale(0.176349) rotate(-169.592)"/>
<use xlink:href="#stroke0_251_108" transform="translate(471.555 214.385) scale(0.141568) rotate(78.1454)"/>
<use xlink:href="#stroke0_251_108" transform="matrix(0.36235 -0.033734 0.033734 0.36235 418.572 225.83)"/>
<use xlink:href="#stroke0_251_108" transform="translate(493.339 205.93) scale(0.177206) rotate(49.291)"/>
<use xlink:href="#stroke0_251_108" transform="translate(478.275 187.893) scale(0.27262) rotate(12.1255)"/>
<use xlink:href="#stroke0_251_108" transform="translate(522.116 191.578) scale(0.318556) rotate(42.7875)"/>
<use xlink:href="#stroke0_251_108" transform="translate(491.374 264.069) scale(0.271575) rotate(-24.9218)"/>
<use xlink:href="#stroke0_251_108" transform="translate(528.958 254.306) scale(0.138938) rotate(-26.6117)"/>
<use xlink:href="#stroke0_251_108" transform="translate(553.388 256.835) scale(0.152178) rotate(26.722)"/>
<use xlink:href="#stroke0_251_108" transform="translate(548.105 224.134) scale(0.196471) rotate(-3.94291)"/>
<use xlink:href="#stroke0_251_108" transform="translate(552.843 298.875) scale(0.183583) rotate(-70.1337)"/>
<use xlink:href="#stroke0_251_108" transform="translate(616.521 266.439) scale(0.155967) rotate(-174.131)"/>
<use xlink:href="#stroke0_251_108" transform="matrix(-0.1 0.0967561 -0.0967561 -0.1 632.682 269.782)"/>
<use xlink:href="#stroke0_251_108" transform="translate(629.393 303.477) scale(0.206269) rotate(-154.605)"/>
<use xlink:href="#stroke0_251_108" transform="translate(653.343 267.752) scale(0.140378) rotate(159.438)"/>
<use xlink:href="#stroke0_251_108" transform="translate(618.861 255.046) scale(0.117577) rotate(-73.6977)"/>
<use xlink:href="#stroke0_251_108" transform="translate(696.766 243.117) scale(0.257035) rotate(117.35)"/>
<use xlink:href="#stroke0_251_108" transform="translate(663.768 200.113) scale(0.285082) rotate(38.7596)"/>
<use xlink:href="#stroke0_251_108" transform="translate(654.735 243.554) scale(0.145059) rotate(-42.4239)"/>
<use xlink:href="#stroke0_251_108" transform="translate(650.074 289.21) scale(0.214302) rotate(-49.018)"/>
<use xlink:href="#stroke0_251_108" transform="translate(678.063 291.778) scale(0.227637) rotate(-95.1898)"/>
<use xlink:href="#stroke0_251_108" transform="translate(699.221 289.531) scale(0.101891) rotate(-76.8256)"/>
<use xlink:href="#stroke0_251_108" transform="translate(691.571 253.542) scale(0.190185) rotate(-50.4289)"/>
<use xlink:href="#stroke0_251_108" transform="translate(708.365 270.372) scale(0.207486) rotate(-3.85626)"/>
<use xlink:href="#stroke0_251_108" transform="translate(710.737 286.96) scale(0.237007) rotate(-66.3027)"/>
<use xlink:href="#stroke0_251_108" transform="translate(782.996 269.535) scale(0.105283) rotate(117.167)"/>
<use xlink:href="#stroke0_251_108" transform="translate(747.065 277.725) scale(0.14769) rotate(-70.8414)"/>
<use xlink:href="#stroke0_251_108" transform="translate(798.73 308.989) scale(0.11771) rotate(158.912)"/>
<use xlink:href="#stroke0_251_108" transform="translate(799.641 300.384) scale(0.163167) rotate(-155.667)"/>
<use xlink:href="#stroke0_251_108" transform="translate(820.621 249.852) scale(0.128038) rotate(101.897)"/>
<use xlink:href="#stroke0_251_108" transform="translate(783.78 320.055) scale(0.155541) rotate(-87.4868)"/>
<use xlink:href="#stroke0_251_108" transform="translate(788.523 285.33) scale(0.168539) rotate(-66.6216)"/>
<use xlink:href="#stroke0_251_108" transform="translate(825.7 324.134) scale(0.181109) rotate(-132.176)"/>
<use xlink:href="#stroke0_251_108" transform="translate(827.667 243.426) scale(0.183838) rotate(19.366)"/>
<use xlink:href="#stroke0_251_108" transform="translate(863.695 298.799) scale(0.0821267) rotate(127.884)"/>
<use xlink:href="#stroke0_251_108" transform="translate(834.138 257.291) scale(0.126958) rotate(-47.341)"/>
<use xlink:href="#stroke0_251_108" transform="translate(842.538 280.808) scale(0.138754) rotate(-74.4651)"/>
<use xlink:href="#stroke0_251_108" transform="translate(865.99 296.362) scale(0.0874816) rotate(-115.045)"/>
<use xlink:href="#stroke0_251_108" transform="translate(886.211 268.064) scale(0.0777331) rotate(78.7185)"/>
<use xlink:href="#stroke0_251_108" transform="translate(899.111 332.076) scale(0.169304) rotate(-165.762)"/>
<use xlink:href="#stroke0_251_108" transform="translate(875.902 310.08) scale(0.106675) rotate(-78.9881)"/>
<use xlink:href="#stroke0_251_108" transform="translate(927.111 259.504) scale(0.137444) rotate(110.606)"/>
<path d="M196.887 289.84C196.016 290.084 195.022 290.053 193.906 289.718C192.76 289.382 191.843 288.176 191.201 286.13C179.644 251.288 169.412 214.004 160.505 174.277C154.625 131.934 149.988 89.4033 146.594 46.6838C146.09 39.1873 145.112 33.7825 143.644 30.3778C142.391 27.0646 139.777 24.1485 135.833 21.6904C134.345 20.7743 132.857 19.8633 131.369 18.9574C128.572 17.2627 127.379 15.0946 127.792 12.4838C128.205 9.85777 129.932 9.12491 132.989 10.27C150.039 17.7614 166.977 25.5226 183.802 33.5535C186.538 34.8818 187.822 36.6376 187.639 38.8514C187.44 41.0958 185.636 41.5386 182.273 40.2255C180.368 39.5741 178.462 38.9227 176.556 38.2713C173.163 36.9888 170.839 37.2025 169.631 38.9736C168.592 40.653 168.317 44.1799 168.775 49.6153C175.573 110.687 184.862 170.247 196.643 228.295C197.117 229.623 197.805 230.219 198.706 230.112C199.792 229.974 200.434 229.211 200.633 227.822C213.626 175.942 227.18 128.428 241.295 85.281C244.566 76.3035 241.891 69.494 233.315 64.4404C231.858 63.5752 230.396 62.7151 228.928 61.8601C225.626 59.7531 224.021 57.8599 224.128 56.2262C224.25 54.2414 225.657 53.9361 228.393 55.2644C242.049 61.9313 255.705 68.5983 269.361 75.2653C272.281 76.6852 273.733 78.1509 273.687 79.6777C273.641 81.2045 272.235 81.5556 269.483 80.7617C268.006 80.3138 266.528 79.8711 265.05 79.4334C261.305 78.3494 258.294 78.6242 256.046 80.3189C253.952 81.9679 252.133 84.9146 250.528 89.2201C241.325 116.275 232.097 145.747 222.844 177.636C214.62 212.488 207.394 247.741 201.168 283.397C200.938 285.626 200.327 287.214 199.333 288.145C198.538 289.031 197.728 289.595 196.887 289.84Z" fill="#1E1E1E"/>
<path d="M306.767 259.151C297.137 261.472 288.408 261.151 280.597 257.838C272.693 254.205 266.181 247.609 261.106 237.883C256.245 227.425 253.708 214.539 253.585 199.485C253.616 183.927 256.184 170.476 261.183 159.437C266.181 148.917 272.862 141.604 281.178 137.405C289.417 133.604 298.482 133.054 308.434 135.344C320.433 137.894 330.14 143.1 337.524 150.948C345.106 158.429 348.867 169.605 348.76 185.011C348.729 189.728 346.146 192.064 341.009 192.019C321.504 191.815 301.952 191.617 282.355 191.423C278.197 191.377 276.118 193.454 276.118 197.637C276.255 216.814 279.679 230.555 286.237 238.708C292.734 246.326 300.821 248.968 310.528 247.136C318.202 245.777 324.469 242.815 329.315 238.265C334.176 233.853 338.135 226.982 341.208 217.592C341.835 215.959 343.149 215.104 345.198 214.981C347.659 214.859 348.561 216.218 347.934 219.073C344.617 231.715 339.419 240.86 332.357 246.769C325.31 252.739 316.78 256.892 306.767 259.151ZM281.437 184.721C291.873 185.056 302.293 185.392 312.698 185.728C322.558 186.018 327.511 182.354 327.557 174.781C327.603 165.086 325.998 157.391 322.757 151.559C319.486 145.665 314.609 142.108 308.097 140.841C300.148 139.222 293.376 141.406 287.751 147.772C282.278 154.597 278.609 165.407 276.806 180.217C276.362 183.087 277.906 184.598 281.437 184.721Z" fill="#1E1E1E"/>
<path d="M392.372 132.596C387.725 132.245 383.919 131.13 380.938 129.252C377.942 127.283 376.428 125.145 376.367 122.886C376.291 120.55 377.728 118.779 380.693 117.542C383.674 116.168 387.557 115.542 392.296 115.725C397.05 115.878 400.841 116.824 403.638 118.55C406.635 120.183 408.117 122.275 408.087 124.794C408.056 127.313 406.528 129.329 403.531 130.825C400.535 132.291 396.821 132.886 392.372 132.596ZM356.112 282.343C350.303 283.214 345.611 283.687 341.957 283.412C338.319 283.152 336.53 281.824 336.607 279.397C336.668 277.625 337.784 275.747 340 273.808C342.018 272.037 344.831 270.77 348.408 270.037C351.603 269.427 353.896 269.427 355.256 270.022C356.617 270.709 357.687 271.549 358.436 272.526C359.185 273.503 360.148 274.297 361.325 274.923C362.686 275.625 364.688 275.854 367.302 275.625C371.124 275.335 374.12 274.022 376.23 271.61C378.339 269.152 379.47 265.778 379.623 261.442C380.214 231.394 380.739 200.121 381.198 167.621C381.228 165.33 380.632 163.773 379.394 162.933C378.354 161.971 376.413 161.269 373.509 160.811C371.338 160.455 369.167 160.093 366.996 159.727C364.321 159.361 362.976 158.536 362.976 157.254C362.976 156.215 364.642 155.681 367.944 155.605C374.365 155.528 379.562 154.963 383.521 153.925C387.48 152.887 391.348 151.543 395.124 149.91C397.019 148.978 398.594 148.551 399.847 148.627C401.743 148.734 402.675 149.482 402.645 150.887C402.084 179.173 401.498 207.729 400.887 236.555C400.55 250.785 396.286 261.747 388.138 269.701C379.944 277.519 369.244 281.504 356.112 282.343Z" fill="#1E1E1E"/>
<path d="M457.936 244.861C449.406 244.876 442.436 243.364 437.024 240.341C431.613 237.196 428.984 232.982 429.121 227.639C429.259 222.371 432.148 217.333 437.789 212.569C443.46 207.699 451.18 203.317 460.948 199.439C470.731 195.545 481.829 192.385 494.242 189.896C496.917 189.347 498.323 188.278 498.415 186.675C498.792 181.066 499.18 175.514 499.577 170.018C500.036 164.323 498.813 160.384 495.893 158.17C492.973 155.834 488.785 154.719 483.343 154.826C478.115 154.887 473.208 156.261 468.637 158.948C464.296 161.513 461.024 165.911 458.823 172.201C457.585 176.048 455.185 178.888 451.577 180.705C448.214 182.4 444.775 183.255 441.259 183.255C435.496 183.224 432.668 181.499 432.775 178.079C432.912 174.537 434.701 171.117 438.155 167.804C441.84 164.399 446.563 161.391 452.341 158.75C458.135 156.002 464.464 153.818 471.281 152.215C478.13 150.566 484.917 149.696 491.643 149.574C512.372 148.917 521.957 154.918 520.642 168.506C519.236 187.703 518.048 207.103 517.08 226.707C516.897 232.005 518.914 234.708 523.134 234.875C525.732 234.998 528.178 234.02 530.471 231.975C532.764 229.761 534.018 225.928 534.262 220.447C534.369 218.34 535.73 217.333 538.328 217.394C540.744 217.455 541.89 218.615 541.768 220.89C541.34 230.494 538.497 237.196 533.177 241.044C528.086 244.723 522.323 246.372 515.903 246.067C511.072 245.853 507.281 244.555 504.499 242.143C501.732 239.624 499.913 236.692 498.996 233.364C498.843 232.112 497.941 231.486 496.321 231.455C494.915 231.303 493.478 231.822 492.025 233.028C487.057 236.982 481.997 239.929 476.892 241.914C471.771 243.899 465.442 244.891 457.936 244.861ZM466.375 236.585C471.664 236.616 476.555 235.562 481.08 233.425C485.605 231.15 489.35 228.127 492.316 224.341C495.297 220.508 496.887 216.157 497.101 211.271C497.325 206.681 497.554 202.095 497.788 197.515C497.926 195.133 495.816 194.477 491.475 195.515C478.879 198.339 469.004 202.172 461.865 207.027C454.955 211.745 451.409 217.44 451.195 224.051C450.95 232.448 456.025 236.585 466.375 236.585Z" fill="#1E1E1E"/>
<path d="M581.009 252.403C576.53 251.685 571.775 250.586 566.716 249.105C561.64 247.823 557.513 246.525 554.395 245.181C552.637 244.372 551.781 243.196 551.826 241.654C551.816 234.265 551.842 226.789 551.903 219.226C552.025 216.89 553.401 215.775 556 215.852C558.201 215.913 559.638 217.073 560.311 219.333C563.184 229.348 566.93 236.341 571.485 240.387C576.254 244.54 582.033 247.151 588.835 248.204C594.461 249.12 599.215 248.281 603.113 245.548C607.057 242.555 609.258 237.822 609.732 231.379C610.206 224.86 608.448 218.921 604.412 213.699C600.377 208.615 593.345 203.24 583.302 197.729C573.228 192.874 565.921 188.186 561.457 183.575C556.978 178.965 554.991 173.957 555.48 168.491C556.183 161.239 560.876 155.116 569.498 149.803C578.119 144.307 589.019 140.154 602.15 137.131C606.109 136.123 609.915 135.436 613.584 135.115C617.268 134.627 620.54 134.673 623.368 135.283C625.064 135.68 625.875 136.612 625.752 138.108C625.375 146.536 624.998 155.157 624.621 163.972C624.453 166.43 623.169 167.834 620.754 168.17C619.363 168.353 618.369 168.155 617.819 167.605C617.268 166.888 616.84 165.987 616.504 164.933C613.233 155.513 609.763 149.604 606.094 146.872C602.471 144.139 597.763 143.467 591.969 144.673C586.787 145.681 582.323 147.589 578.639 150.429C574.97 153.208 572.922 156.322 572.57 159.803C572.112 164.399 573.854 168.277 577.783 171.438C581.712 174.69 589.003 178.674 599.628 183.575C609.273 188.644 616.366 194.721 620.891 201.714C625.6 208.798 627.617 216.752 626.945 225.348C626.043 236.448 621.304 244.616 612.851 249.594C604.535 253.976 593.956 254.724 581.009 252.403Z" fill="#1E1E1E"/>
<path d="M737.543 288.496C733.232 287.718 728.555 286.282 723.48 284.252C718.649 282.236 714.094 280.053 709.813 277.687C705.762 275.366 702.629 273.183 700.443 271.076C699.159 269.869 698.18 268.74 697.508 267.671C697.064 266.419 697.034 264.541 697.416 262.052C699.322 244.036 700.937 226 702.262 207.943C702.644 203.363 704.234 201.027 707.062 200.935C709.477 200.843 710.96 202.905 711.48 207.118C712.06 211.597 712.616 216.096 713.146 220.615C716.004 255.518 726.583 275.106 747.036 278.038C758.501 279.32 769.003 275.442 778.465 266.312C788.493 256.495 795.372 242.616 798.185 225.135C800.065 208.447 797.13 193.438 789.777 180.155C782.47 167.163 770.318 155.33 753.869 145.009C736.381 135.222 723.999 126.016 716.28 116.977C708.743 108.381 704.815 98.5946 704.295 87.3116C703.592 72.8682 707.841 59.0966 716.86 45.2792C725.834 30.8816 737.513 18.8505 752.081 9.38447C757.569 5.85759 762.995 3.17045 768.392 1.42991C773.895 -0.188479 778.695 -0.448034 782.837 0.727591C784.228 1.07875 785.375 1.72 786.262 2.65134C787.362 3.49107 788.157 4.92625 788.646 6.91108C793.935 26.2605 799.296 45.8797 804.728 65.7687C805.828 70.2879 804.743 72.9446 801.518 73.6774C799.286 74.1965 797.268 72.7155 795.479 69.2803C793.91 66.2165 792.346 63.168 790.786 60.1348C781.4 42.0119 773.543 30.1335 767.062 24.1485C761.146 18.3772 754.221 18.1329 745.981 23.0645C738.002 27.9196 731.872 34.5917 727.515 43.0196C723.281 51.2489 721.538 60.486 722.425 70.9903C723.174 80.0746 726.766 87.8154 733.355 94.4264C740.142 101.511 752.065 109.816 769.721 120.046C789.655 132.55 804.59 146.398 813.64 161.01C822.582 175.636 826.557 192.125 825.563 210.309C824.233 226.341 818.516 240.967 808.58 253.96C798.43 266.816 786.689 276.633 773.818 283.152C761.895 288.817 749.834 290.527 737.543 288.496Z" fill="#1E1E1E"/>
<defs>
<g id="stroke0_251_108" data-figma-scatter-ref="stroke0_251_108_ref" data-figma-scatter="f0.25_w0.3_aj180_sj0.68_r0_s5161984032018771235_sw84">
<path d="M161.622 271.62C162.801 270.44 165.001 270.908 165.598 272.466C166.28 274.243 164.308 276.953 162.333 276.953C160.932 276.952 160.386 272.855 161.622 271.62ZM125.347 271.526C126.214 268.071 129.955 267.913 129.955 271.331C129.955 274.319 127.339 276.737 125.786 275.184C125.188 274.586 124.991 272.944 125.347 271.526ZM90.9548 269.953C92.4998 269.953 93.222 272.086 92.068 273.24C90.688 274.62 88.3711 272.708 89.4011 271.04C89.771 270.442 90.4698 269.953 90.9548 269.953ZM141.512 256.176C145.165 250.962 153.033 256.131 149.547 261.453C147.571 264.469 144.663 264.661 141.955 261.953C139.547 259.545 139.508 259.036 141.512 256.176ZM73.2048 251.23C75.5376 250.164 78.9543 251.195 78.9548 252.965C78.9548 254.503 74.0936 257.221 72.4626 256.595C70.1919 255.723 70.6521 252.397 73.2048 251.23ZM179.586 250.7C181.676 246.659 184.455 247.382 184.455 251.967C184.455 254.88 184.063 255.508 182.068 255.79C178.812 256.251 177.794 254.165 179.586 250.7ZM110.955 251.953C112.5 251.953 113.222 254.086 112.068 255.24C110.688 256.62 108.371 254.708 109.401 253.04C109.771 252.442 110.47 251.953 110.955 251.953ZM125.484 235.308C127.968 233.492 129.882 233.6 130.649 235.599C131.313 237.329 128.652 239.953 126.232 239.953C123.969 239.953 123.459 236.79 125.484 235.308ZM56.4548 232.953C58.3068 232.953 60.1711 235.593 59.7741 237.655C59.5331 238.905 58.5208 239.453 56.4548 239.453C53.15 239.453 51.913 236.914 53.9948 234.405C54.6577 233.606 55.7648 232.953 56.4548 232.953ZM160.318 235.45C161.227 233.081 165.455 233.896 165.455 236.439C165.455 238.645 162.346 239.744 160.716 238.114C160.151 237.549 159.972 236.351 160.318 235.45ZM196.198 234.11C197.852 232.456 202.454 233.054 202.455 234.923C202.455 236.69 198.218 238.991 196.312 238.261C194.617 237.61 194.566 235.742 196.198 234.11ZM90.9548 234.953C91.5047 234.953 91.9547 235.403 91.9548 235.953C91.9548 236.503 91.5048 236.953 90.9548 236.953C90.4049 236.953 89.9548 236.503 89.9548 235.953C89.9548 235.403 90.4049 234.953 90.9548 234.953ZM71.5514 214.259C74.027 212.449 74.6796 212.586 77.6345 215.541C81.1173 219.024 78.0602 223.076 73.2272 221.384C69.8362 220.196 68.8974 216.2 71.5514 214.259ZM34.9665 215.44C37.4415 212.458 42.9548 214.246 42.9548 218.031C42.9548 220.921 40.2601 222.413 37.3972 221.109C34.3162 219.705 33.3325 217.409 34.9665 215.44ZM179.159 214.523C181.95 212.567 185.454 214.484 185.455 217.966C185.455 221.094 183.104 222.358 179.705 221.057C176.335 219.766 176.077 216.681 179.159 214.523ZM214.155 215.153C216.556 212.752 221.955 214.69 221.955 217.953C221.955 220.669 218.715 222.192 215.52 220.978C212.789 219.94 212.14 217.168 214.155 215.153ZM107.319 217.446C108.12 215.36 111.324 215.917 111.767 218.219C112.165 220.284 109.278 221.677 107.755 220.153C107.169 219.567 106.973 218.349 107.319 217.446ZM143.431 216.992C144.483 215.289 148.382 216.176 148.769 218.206C148.952 219.17 148.36 220.245 147.451 220.594C145.466 221.355 142.421 218.627 143.431 216.992ZM123.155 197.153C125.911 194.397 132.955 197.004 132.955 200.779C132.955 203.022 129.938 205.953 127.629 205.953C123.218 205.953 120.231 200.077 123.155 197.153ZM231.155 197.153C233.347 194.961 237.885 195.705 239.141 198.463C240.423 201.275 237.199 205.953 233.981 205.953C230.36 205.953 228.414 199.894 231.155 197.153ZM53.0827 197.007C60.5555 193.946 64.7518 201.175 57.5075 204.629C53.4156 206.581 52.3072 205.961 51.3513 201.185C50.8033 198.446 51.0548 197.838 53.0827 197.007ZM196.205 196.962C197.443 196.453 199.58 196.13 200.955 196.244C205.799 196.649 204.127 203.891 198.873 205.265C194.383 206.438 191.907 198.732 196.205 196.962ZM160.564 197.487C163.37 194.681 166.955 196.37 166.955 200.498C166.955 203.092 163.864 206.133 162.245 205.132C159.905 203.686 158.907 199.144 160.564 197.487ZM88.5593 199.108C90.4402 196.423 92.1249 196.379 94.4548 198.953C96.2018 200.883 96.2018 201.023 94.4548 202.953C90.7188 207.081 85.4033 203.614 88.5593 199.108ZM18.2048 196.615C21.6617 195.22 24.3307 197.341 23.7819 201.046C23.2719 204.483 20.1722 205.903 18.3962 203.513C16.6233 201.125 16.517 197.296 18.2048 196.615ZM177.574 178.242C182.074 174.952 188.12 178.726 186.369 183.733C185.322 186.727 180.908 187.989 178.493 185.984C176.118 184.014 175.604 179.682 177.574 178.242ZM213.622 178.62C214.727 177.515 219.471 177.87 220.755 179.153C222.641 181.039 222.168 184.768 219.888 185.989C215.974 188.084 210.544 181.697 213.622 178.62ZM72.0075 181.391C73.1314 180.037 73.4588 180.028 74.7555 181.325C76.4955 183.065 75.6838 185.953 73.4548 185.953C71.31 185.953 70.4556 183.26 72.0075 181.391ZM106.155 179.153C107.61 177.698 109.02 177.648 112.39 178.929C116.93 180.655 115.094 185.953 109.955 185.953C105.588 185.953 103.354 181.954 106.155 179.153ZM143.339 180.395C144.582 177.156 149.462 180.083 148.774 183.655C148.301 186.112 143.609 186.104 143.134 183.645C142.943 182.651 143.035 181.188 143.339 180.395ZM35.3386 180.395C36.0985 178.414 40.8669 178.56 41.6462 180.589C42.5552 182.958 40.613 185.453 37.86 185.453C35.4112 185.453 34.2738 183.17 35.3386 180.395ZM249.136 180.234C249.767 179.474 251.447 178.987 252.869 179.152C256.507 179.575 256.625 184.287 253.011 184.798C249.914 185.235 247.422 182.3 249.136 180.234ZM1.62176 179.62C2.75172 178.489 3.84231 178.873 4.85028 180.757C6.07525 183.045 4.65825 185.437 2.55633 184.63C0.953362 184.015 0.367857 180.874 1.62176 179.62ZM195.155 161.153C199.2 157.108 205.563 162.129 203.137 167.453C200.971 172.208 193.955 170.297 193.955 164.953C193.955 163.523 194.495 161.813 195.155 161.153ZM122.99 161.888C125.209 157.743 133.337 161.845 132.76 166.819C132.498 169.085 131.921 169.497 128.635 169.768C122.714 170.255 120.308 166.899 122.99 161.888ZM159.2 162.108C160.917 160.391 166.018 161.077 167.349 163.203C168.87 165.631 167.004 168.364 163.544 168.775C158.898 169.328 156.169 165.139 159.2 162.108ZM17.8679 163.847C20.8558 161.398 23.3531 161.759 23.7731 164.704C24.2421 167.99 19.5737 170.013 17.1677 167.566C15.5488 165.919 15.5872 165.716 17.8679 163.847ZM53.3181 164.45C54.2271 162.081 58.4548 162.896 58.4548 165.439C58.4546 167.645 55.3465 168.744 53.7165 167.114C53.1515 166.549 52.972 165.351 53.3181 164.45ZM90.4011 165.04C91.191 163.762 92.6307 163.62 93.3298 164.751C94.2917 166.307 92.1385 168.536 90.8845 167.282C90.2495 166.647 90.0321 165.638 90.4011 165.04ZM233.455 164.953C233.939 164.17 234.514 164.112 235.181 164.779C235.731 165.329 235.854 166.307 235.455 166.953C234.971 167.736 234.396 167.794 233.729 167.127C233.179 166.577 233.056 165.599 233.455 164.953ZM72.155 143.153C74.201 141.107 75.9215 141.814 77.6335 145.405C79.4463 149.206 78.3548 151.953 75.0329 151.953C71.365 151.953 69.3911 145.917 72.155 143.153ZM140.99 143.888C143.209 139.743 151.337 143.845 150.76 148.819C150.498 151.085 149.921 151.497 146.635 151.768C140.714 152.255 138.308 148.899 140.99 143.888ZM214.371 144.31C215.315 141.85 219.296 143.115 220.383 146.22C221.148 148.402 220.991 149.346 219.635 150.702C216.554 153.783 212.585 148.965 214.371 144.31ZM104.622 142.62C105.751 141.49 112.484 141.883 113.755 143.153C116.971 146.369 114.013 150.953 108.721 150.953C104.846 150.953 102.025 145.217 104.622 142.62ZM248.622 142.62C251.659 139.582 258.199 144.269 256.629 148.359C255.819 150.469 251.281 151.469 249.442 149.942C247.938 148.694 247.395 143.847 248.622 142.62ZM35.155 143.153C36.8479 141.46 39.9777 141.664 42.1257 143.608C44.6817 145.921 44.4038 148.791 41.4958 150.116C36.8629 152.227 31.7242 146.584 35.155 143.153ZM178.001 143.398C180.63 140.23 185.955 142.327 185.955 146.531C185.955 149.786 183.572 151.325 180.239 150.22C177.156 149.198 176.032 145.771 178.001 143.398ZM1.18426 144.124C2.95012 142.358 5.40436 143.125 5.75262 145.551C6.10859 148.031 3.58934 150.41 1.46844 149.597C-0.35556 148.897 -0.51474 145.823 1.18426 144.124ZM125.522 126.879C128.986 123.051 132.286 125.737 130.077 130.585C129.266 132.364 128.29 132.997 126.706 132.771C123.867 132.366 123.266 129.372 125.522 126.879ZM90.9548 125.953C92.4118 125.953 94.1733 128.943 93.5983 130.44C93.2793 131.272 92.0897 131.953 90.9548 131.953C88.4109 131.953 87.3045 129.442 88.9665 127.44C89.6443 126.623 90.5397 125.953 90.9548 125.953ZM231.291 128.52C232.202 126.145 235.955 126.518 235.955 128.984C235.955 131.343 233.31 132.708 231.755 131.153C231.169 130.567 230.96 129.382 231.291 128.52ZM53.3386 125.395C54.5816 122.156 59.4621 125.083 58.7741 128.655C58.3011 131.112 53.6088 131.104 53.1345 128.645C52.9435 127.651 53.0347 126.187 53.3386 125.395ZM196.339 125.395C197.582 122.156 202.462 125.083 201.774 128.655C201.301 131.112 196.609 131.104 196.134 128.645C195.943 127.651 196.035 126.187 196.339 125.395ZM18.7048 123.033C21.1938 121.583 21.6583 121.691 23.3513 124.108C26.093 128.023 21.5169 132.115 18.155 128.753C16.4142 127.012 16.684 124.21 18.7048 123.033ZM161.551 123.259C163.914 121.531 164.32 121.594 166.508 124.013C168.958 126.719 167.37 129.453 163.346 129.453C159.801 129.453 158.626 125.398 161.551 123.259ZM176.792 108.412C178.282 105.142 183.179 105.008 185.398 108.176C187.404 111.039 187.359 112.233 185.143 114.97C181.634 119.302 174.413 113.633 176.792 108.412ZM35.1979 107.11C38.6209 103.687 45.9262 109.585 43.3542 113.694C42.0142 115.835 37.3673 116.54 35.3952 114.903C33.6272 113.436 33.51 108.798 35.1979 107.11ZM106.155 108.153C109.274 105.034 116.569 109.157 114.312 112.763C113.008 114.846 108.341 115.518 106.395 113.903C104.642 112.449 104.531 109.777 106.155 108.153ZM248.885 109.537C251.5 106.388 256.541 108.671 255.774 112.655C255.536 113.889 254.525 114.453 252.55 114.453C248.965 114.453 246.996 111.813 248.885 109.537ZM72.7048 108.014C75.4777 106.366 78.4171 107.183 78.7741 109.701C79.1151 112.099 74.9529 114.55 72.2829 113.525C70.3741 112.793 70.6471 109.236 72.7048 108.014ZM215.577 108.24C217.848 106.579 219.901 106.913 221.325 109.175C222.736 111.415 221.245 112.962 217.404 113.243C213.892 113.5 212.731 110.321 215.577 108.24ZM1.36395 110.329C1.86393 109.025 2.29819 108.896 3.18817 109.786C4.07716 110.675 4.07356 111.235 3.17156 112.137C1.6438 113.664 0.517033 112.537 1.36395 110.329ZM142.401 110.04C143.42 108.392 146.955 108.737 146.955 110.484C146.955 111.327 146.25 112.286 145.388 112.617C143.507 113.339 141.456 111.569 142.401 110.04ZM198.332 89.7538C199.769 88.8208 202.955 91.7971 202.955 94.0731C202.955 95.0681 202.085 96.3478 201.021 96.9179C195.912 99.6518 193.399 92.9558 198.332 89.7538ZM53.9899 90.8876C55.8619 87.3906 59.9547 89.2641 59.9548 93.6181C59.9548 96.521 56.4363 98.597 54.3913 96.9003C52.6944 95.4924 52.5651 93.5514 53.9899 90.8876ZM124.949 91.4599C126.748 89.2921 129.384 89.9791 129.775 92.7177C130.185 95.5927 127.358 96.7845 125.213 94.6405C123.886 93.3125 123.842 92.7938 124.949 91.4599ZM89.9548 92.453C89.9548 91.5361 90.439 90.9484 91.03 91.1454C91.6209 91.3424 92.1051 91.9311 92.1052 92.453C92.1052 92.975 91.621 93.5646 91.03 93.7616C90.439 93.9584 89.9548 93.3699 89.9548 92.453ZM106.012 73.8466C107.322 71.3997 110.172 71.4303 112.421 73.9159C114.452 76.1589 113.962 78.3446 111.082 79.8856C108.331 81.3569 104.461 76.7474 106.012 73.8466ZM71.7048 71.0331C74.3617 69.4851 75.3919 69.7252 77.9968 72.4979C80.7467 75.4249 79.87 78.213 76.0202 78.7831C71.4303 79.4631 67.953 73.2192 71.7048 71.0331ZM178.705 71.0331C181.256 69.5472 182.435 69.7213 184.38 71.871C188.234 76.1299 184.175 80.7468 179.008 77.9813C176.476 76.6264 176.293 72.4382 178.705 71.0331ZM214.155 72.1532C216.97 69.3383 222.522 71.8079 221.788 75.5477C221.237 78.3477 218.469 79.5078 215.533 78.1698C212.799 76.9248 212.163 74.1451 214.155 72.1532ZM34.9665 72.4403C36.6944 70.3586 40.3146 70.5883 42.4206 72.9159C45.6806 76.5179 42.054 80.2297 37.363 78.0927C34.3142 76.7037 33.3375 74.4023 34.9665 72.4403ZM143.955 74.452C145.696 72.3551 148.455 72.9691 148.455 75.453C148.455 77.662 145.336 78.7338 143.691 77.0888C142.956 76.3538 143.035 75.5609 143.955 74.452ZM91.4548 52.953C93.1596 52.953 95.0944 53.4933 95.7546 54.1532C98.5466 56.9452 95.7296 62.953 91.6286 62.953C87.2179 62.9526 84.2312 57.0771 87.155 54.1532C87.8149 53.4932 89.7498 52.9531 91.4548 52.953ZM123.2 54.1083C125.267 52.0413 129.919 53.1572 131.727 56.1522C134.87 61.3581 127.017 65.7348 123.512 60.7304C121.632 58.0474 121.526 55.7823 123.2 54.1083ZM234.455 52.953C238.789 52.953 240.43 57.6659 237.3 61.1239C235.255 63.3829 234.127 63.4187 231.784 61.2977C229.695 59.4067 229.388 55.9202 231.155 54.1532C231.815 53.4933 233.3 52.9531 234.455 52.953ZM53.2048 53.9618C59.9138 51.1998 63.8957 56.4948 58.3747 60.8368C54.8289 63.6256 53.1163 63.5071 51.9304 60.3886C50.4444 56.4786 50.7419 54.9758 53.2048 53.9618ZM160.564 54.4872C163.37 51.6813 166.955 53.3701 166.955 57.4979C166.955 60.0919 163.864 63.1327 162.245 62.1317C159.905 60.6855 158.907 56.1441 160.564 54.4872ZM195.587 54.2323C198.69 51.9604 203.399 52.9831 203.752 56.0048C204.176 59.6408 200.641 62.5122 196.284 62.0712C194.057 61.8459 193.515 55.7487 195.587 54.2323ZM17.3473 55.3749C18.0766 53.4732 21.3902 53.5672 23.0251 55.537C24.5491 57.374 23.2487 60.2546 20.6647 60.7636C18.8228 61.126 16.5544 57.4408 17.3473 55.3749ZM106.155 36.1532C107.628 34.6802 109.479 34.6282 112.021 35.9882C115.627 37.9182 113.772 42.953 109.455 42.953C105.545 42.9528 103.522 38.7862 106.155 36.1532ZM177.155 35.1532C178.855 33.4532 183.471 33.6656 185.005 35.5136C188.37 39.5695 181.517 45.325 177.395 41.9032C175.645 40.4512 175.515 36.7932 177.155 35.1532ZM35.9948 36.4052C37.4888 34.6052 39.0418 34.5655 41.3727 36.2694C43.4967 37.8224 43.1708 40.7877 40.7048 42.3407C37.2398 44.5227 33.338 39.6062 35.9948 36.4052ZM71.155 36.1532C73.9848 33.3233 79.3609 36.035 78.8005 40.0087C78.5425 41.8396 77.7501 42.5343 75.6452 42.7753C70.9402 43.3153 68.1341 39.1742 71.155 36.1532ZM144.168 37.1415C145.639 35.6695 146.962 36.0172 148.367 38.244C149.929 40.72 146.723 43.835 144.505 41.995C142.643 40.4492 142.527 38.7813 144.168 37.1415ZM214.033 37.3593C215.127 36.0413 215.465 36.0355 216.737 37.3075C218.339 38.9095 217.62 40.953 215.455 40.953C213.373 40.9529 212.623 39.0582 214.033 37.3593ZM195.979 22.9296C199.6 19.3086 204.362 21.486 203.791 26.5018C203.483 29.2058 203.13 29.453 199.57 29.453C194.623 29.453 192.788 26.1205 195.979 22.9296ZM122.99 18.8876C125.233 14.6976 132.366 18.4534 131.789 23.5214C131.523 25.8602 130.909 26.5165 128.754 26.7655C123.152 27.4112 120.424 23.6833 122.99 18.8876ZM54.11 19.5575C58.552 16.4465 62.0997 21.7018 58.0378 25.3778C56.5088 26.7618 55.6998 26.8869 54.0378 25.9979C51.3411 24.5539 51.3753 21.4734 54.11 19.5575ZM163.455 17.953C166.798 17.953 168.127 23.2547 165.179 24.8329C161.481 26.8119 158.169 22.1392 161.155 19.1532C161.815 18.4933 162.85 17.9532 163.455 17.953ZM91.9548 21.953C92.5047 21.953 92.9547 22.4031 92.9548 22.953C92.9548 23.503 92.5048 23.953 91.9548 23.953C91.4049 23.9529 90.9548 23.5029 90.9548 22.953C90.9548 22.4032 91.4049 21.9532 91.9548 21.953ZM107.061 1.75477C108.525 -0.979662 111.39 -0.0898075 111.772 3.21669C112.171 6.67755 109.3 8.145 107.349 5.47743C106.397 4.17543 106.317 3.14477 107.061 1.75477ZM142.264 1.58876C143.043 -0.437771 147.288 -0.554549 148.915 1.40517C150.968 3.87805 149.761 6.45278 146.55 6.45302C143.362 6.45302 141.297 4.10976 142.264 1.58876Z" fill="#73DEF8"/>
</g>
<path id="stroke0_251_108_ref" d="M23.7124 94L856.212 147L42.2124 222L902.712 285"/>
</defs>
</svg>
